 http://img850.imageshack.us/img850/3954/intimeo.jpg[/img]
[code]
In Time 2011 R5 PROPER LiNE XviD - MiSTERE
 
http://www.imdb.com/title/tt1637688/
Plot:
In a future where people stop aging at 25, but are engineered to live only one more year, having the means to buy your way out of the situation is a shot at immortal youth

Video
ID                               : 0
Format                           : MPEG-4 Visual
Format profile                   : Advanced Simple@L5
Format settings, BVOP            : 2
Format settings, QPel            : No
Format settings, GMC             : No warppoints
Format settings, Matrix          : Default (H.263)
Muxing mode                      : Packed bitstream
Codec ID                         : XVID
Codec ID/Hint                    : XviD
Duration                         : 1h 44mn
Bit rate                         : 1 478 Kbps
Width                            : 720 pixels
Height                           : 304 pixels
Display aspect ratio             : 2.35:1
Frame rate                       : 25.000 fps
Color space                      : YUV
Chroma subsampling               : 4:2:0
Bit depth                        : 8 bits
Scan type                        : Progressive
Compression mode                 : Lossy
Bits/(Pixel*Frame)               : 0.270
Stream size                      : 1.08 GiB (91%)
Writing library                  : XviD 58

Audio
ID                               : 1
Format                           : MPEG Audio
Format version                   : Version 1
Format profile                   : Layer 3
Mode                             : Joint stereo
Mode extension                   : MS Stereo
Codec ID                         : 55
Codec ID/Hint                    : MP3
Duration                         : 1h 44mn
Bit rate mode                    : Constant
Bit rate                         : 128 Kbps
Channel(s)                       : 2 channels
Sampling rate                    : 44.1 KHz
Compression mode                 : Lossy
Stream size                      : 95.9 MiB (8%)
Alignment                        : Split accross interleaves
Interleave, duration             : 40 ms (1.00 video frame)


Shouldnt have done this,
but noone can manage to do it
right on their own so here it is
FULL PROPER LiNE
complete, so watch this
or mux to your prefered video
FYI if going to use or sources, site them properly
amateur hour is exactly why we left
GREETZ to NOONE YOU ALL STILL SUCK
[/code]
Screens:
[img]http://img337.imageshack.us/img337/1236/62877708.png[/img]
[img]http://img163.imageshack.us/img163/4620/40895344.png[/img]
[img]http://img696.imageshack.us/img696/250/85343919.png[/img]
[img]http://img11.imageshack.us/img11/2556/46904645.png[/img]